HIERARCHY
ROOT Hips
{
	OFFSET 0.000000 0.000000 0.000000
	CHANNELS 6 Xposition Yposition Zposition Xrotation Yrotation Zrotation
	JOINT LeftUpLeg_virtual
	{
		OFFSET 0.000000 0.000000 0.000000
		CHANNELS 3 Xrotation Yrotation Zrotation
		JOINT LeftUpLeg
		{
			OFFSET 11.394100 -6.187798 -0.413800
			CHANNELS 3 Xrotation Yrotation Zrotation
			JOINT LeftLeg
			{
				OFFSET 0.430247 -32.302673 3.732800
				CHANNELS 3 Xrotation Yrotation Zrotation
				JOINT LeftFoot
				{
					OFFSET -0.430247 -48.264931 -6.423300
					CHANNELS 3 Xrotation Yrotation Zrotation
					JOINT LeftToeBase
					{
						OFFSET 4.230900 -16.068199 23.438400
						CHANNELS 3 Xrotation Yrotation Zrotation
						JOINT LeftToe_End
						{
							OFFSET 4.510700 0.695400 19.974600
							CHANNELS 3 Xrotation Yrotation Zrotation
							End Site
							{
								OFFSET 0 0 0
							}
						}
					}
				}
			}
		}
	}
	JOINT RightUpLeg_virtual
	{
		OFFSET 0.000000 0.000000 0.000000
		CHANNELS 3 Xrotation Yrotation Zrotation
		JOINT RightUpLeg
		{
			OFFSET -11.333700 -6.187798 -0.413800
			CHANNELS 3 Xrotation Yrotation Zrotation
			JOINT RightLeg
			{
				OFFSET -0.430392 -32.302628 3.733000
				CHANNELS 3 Xrotation Yrotation Zrotation
				JOINT RightFoot
				{
					OFFSET 0.430392 -48.264973 -6.423500
					CHANNELS 3 Xrotation Yrotation Zrotation
					JOINT RightToeBase
					{
						OFFSET -4.230900 -16.068199 23.438400
						CHANNELS 3 Xrotation Yrotation Zrotation
						JOINT RightToe_End
						{
							OFFSET -4.510700 0.695400 19.974600
							CHANNELS 3 Xrotation Yrotation Zrotation
							End Site
							{
								OFFSET 0 0 0
							}
						}
					}
				}
			}
		}
	}
	JOINT Spine_virtual
	{
		OFFSET 0.000000 0.000000 0.000000
		CHANNELS 3 Xrotation Yrotation Zrotation
		JOINT Spine
		{
			OFFSET -0.002400 12.777504 0.315300
			CHANNELS 3 Xrotation Yrotation Zrotation
			JOINT Spine1
			{
				OFFSET -0.002067 5.816869 0.032633
				CHANNELS 3 Xrotation Yrotation Zrotation
				JOINT Spine1_split
				{
					OFFSET -0.002067 5.816869 0.032633
					CHANNELS 3 Xrotation Yrotation Zrotation
					JOINT Spine2
					{
						OFFSET -0.002067 5.816869 0.032633
						CHANNELS 3 Xrotation Yrotation Zrotation
						JOINT Neck_virtual
						{
							OFFSET 0.000000 0.000000 0.000000
							CHANNELS 3 Xrotation Yrotation Zrotation
							JOINT Neck
							{
								OFFSET -0.003700 21.199493 -0.826900
								CHANNELS 3 Xrotation Yrotation Zrotation
								JOINT Head
								{
									OFFSET 0.000000 20.442200 4.834800
									CHANNELS 3 Xrotation Yrotation Zrotation
									JOINT HeadTop_End
									{
										OFFSET 0.000000 34.668396 4.968400
										CHANNELS 3 Xrotation Yrotation Zrotation
										End Site
										{
											OFFSET 0 0 0
										}
									}
								}
							}
						}
						JOINT LeftShoulder_virtual
						{
							OFFSET 0.000000 0.000000 0.000000
							CHANNELS 3 Xrotation Yrotation Zrotation
							JOINT LeftShoulder
							{
								OFFSET 3.288150 8.794197 -1.372250
								CHANNELS 3 Xrotation Yrotation Zrotation
								JOINT LeftShoulder_split
								{
									OFFSET 3.288150 8.794197 -1.372250
									CHANNELS 3 Xrotation Yrotation Zrotation
									JOINT LeftArm
									{
										OFFSET 11.953299 -2.279007 -0.146200
										CHANNELS 3 Xrotation Yrotation Zrotation
										JOINT LeftForeArm
										{
											OFFSET 18.448900 0.000000 0.000000
											CHANNELS 3 Xrotation Yrotation Zrotation
											JOINT LeftHand
											{
												OFFSET 29.527798 0.000000 0.000000
												CHANNELS 3 Xrotation Yrotation Zrotation
												End Site
												{
													OFFSET 0 0 0
												}
											}
										}
									}
								}
							}
						}
						JOINT RightShoulder_virtual
						{
							OFFSET 0.000000 0.000000 0.000000
							CHANNELS 3 Xrotation Yrotation Zrotation
							JOINT RightShoulder
							{
								OFFSET -3.249400 8.794197 -1.372250
								CHANNELS 3 Xrotation Yrotation Zrotation
								JOINT RightShoulder_split
								{
									OFFSET -3.249400 8.794197 -1.372250
									CHANNELS 3 Xrotation Yrotation Zrotation
									JOINT RightArm
									{
										OFFSET -11.953299 -2.279007 -0.146200
										CHANNELS 3 Xrotation Yrotation Zrotation
										JOINT RightForeArm
										{
											OFFSET -18.448900 0.000000 0.000000
											CHANNELS 3 Xrotation Yrotation Zrotation
											JOINT RightHand
											{
												OFFSET -29.527802 0.000000 0.000000
												CHANNELS 3 Xrotation Yrotation Zrotation
												End Site
												{
													OFFSET 0 0 0
												}
											}
										}
									}
								}
							}
						}
					}
				}
			}
		}
	}
}
MOTION
Frames: 7
Frame Time: 0.03333333
-0.139319 91.663544 44.180019 0.000000 0.000000 0.000000 9.798775 -5.981695 0.229643 -35.159570 5.317720 18.339857 41.549820 7.672134 1.329320 -12.051096 -2.465627 -13.177555 0.670500 -0.248378 1.129596 0.000000 0.000000 0.000000 10.072775 -6.039500 0.525494 -45.770853 -0.521719 -7.727749 45.774784 0.622271 -4.505784 -9.237816 -10.708634 10.177258 1.375557 0.523260 -0.314913 0.000000 0.000000 0.000000 9.972486 -5.587991 0.270559 6.327086 0.068048 -0.396779 1.701900 -0.367668 0.441204 1.049207 1.501103 -0.068986 0.000000 0.000000 0.000000 1.595978 -0.815166 0.415107 12.523741 -0.426061 0.819860 -30.023234 0.765180 -4.887185 0.000000 0.000000 0.000000 1.461938 -0.710083 0.676603 5.905185 -9.337489 19.392317 -1.076256 -4.142282 -0.008919 -32.864685 -15.041127 -13.611612 178.335010 -58.130941 179.662662 0.000000 0.000000 0.000000 0.803403 -0.777182 0.585284 -0.841290 -8.201137 -16.537348 0.456222 -0.216231 1.775428 -38.403982 35.471396 31.167891 179.104308 52.312863 -179.631011 0.000000 0.000000 0.000000 
-0.190785 93.409447 44.932583 0.000000 0.000000 0.000000 10.023933 -5.807385 0.365783 -32.747120 6.056283 17.995986 36.346681 7.724877 1.444372 -10.313314 -2.735115 -12.773296 1.116434 -0.143954 0.754509 0.000000 0.000000 0.000000 10.398827 -5.718188 0.574713 -43.255267 -0.909798 -7.622930 41.086941 0.413012 -4.542478 -6.970543 -10.743703 10.277810 1.013018 0.471393 -0.151567 0.000000 0.000000 0.000000 10.332607 -5.410742 0.385910 6.077881 -0.052678 -0.311708 0.848877 -0.399083 0.293318 1.157656 1.399702 0.064812 0.000000 0.000000 0.000000 0.614318 -0.845104 0.283527 12.283063 -0.356128 0.980585 -28.994016 0.733968 -4.673283 0.000000 0.000000 0.000000 0.425763 -0.759020 0.492828 5.910526 -9.317175 19.135128 -1.319497 -3.948953 -0.019069 -32.325363 -15.471265 -13.985577 178.590554 -58.302023 179.902798 0.000000 0.000000 0.000000 -0.243949 -0.794580 0.472782 -0.935283 -8.118189 -16.550429 0.694857 -0.559255 1.857985 -36.940675 36.240024 30.511964 179.027427 52.486025 -179.328707 0.000000 0.000000 0.000000 
-0.236094 94.936745 45.571304 0.000000 0.000000 0.000000 10.195339 -5.575523 0.466181 -30.679270 6.702354 17.659073 31.685442 7.731582 1.489123 -8.593427 -3.169788 -12.409128 1.405790 -0.023116 0.497454 0.000000 0.000000 0.000000 10.660878 -5.285236 0.587324 -41.018332 -1.196385 -7.527563 36.984064 0.163257 -4.554476 -4.839218 -10.767208 10.371841 0.797436 0.417530 -0.001581 0.000000 0.000000 0.000000 10.592233 -5.095199 0.467590 5.925319 -0.158290 -0.242912 0.090673 -0.461298 0.198137 1.210813 1.305656 0.183290 0.000000 0.000000 0.000000 -0.211848 -0.900615 0.215049 11.847427 -0.295059 1.049072 -27.990194 0.754623 -4.505740 0.000000 0.000000 0.000000 -0.480856 -0.810635 0.358989 5.813910 -8.961492 18.878486 -1.457013 -3.892595 0.003760 -31.473580 -16.701177 -14.281679 178.842752 -58.684384 -179.876980 0.000000 0.000000 0.000000 -1.146586 -0.834571 0.390372 -1.070439 -8.119246 -16.448569 0.800329 -0.945436 1.888547 -35.437514 37.065149 30.065233 178.941367 52.724641 -178.991309 0.000000 0.000000 0.000000 
-0.251947 96.087372 46.020683 0.000000 0.000000 0.000000 10.271278 -5.322875 0.518781 -29.144363 7.210444 17.388253 27.980785 7.725868 1.431970 -7.003759 -3.699728 -12.121709 1.498359 0.100712 0.389401 0.000000 0.000000 0.000000 10.834776 -4.816843 0.570610 -39.271081 -1.395276 -7.471771 33.736691 -0.084423 -4.558064 -3.119737 -10.741356 10.422340 0.904019 0.366971 0.099489 0.000000 0.000000 0.000000 10.743089 -4.745244 0.511632 5.872245 -0.225928 -0.180040 -0.505338 -0.535614 0.160015 1.222801 1.263221 0.200182 0.000000 0.000000 0.000000 -0.820276 -0.975624 0.215785 11.346947 -0.252031 1.064830 -27.006360 0.837100 -4.416985 0.000000 0.000000 0.000000 -1.205625 -0.861164 0.297321 5.641221 -8.262486 18.660587 -1.545139 -3.863114 0.062463 -30.516619 -18.544440 -14.520383 179.108324 -58.819356 -179.618361 0.000000 0.000000 0.000000 -1.820020 -0.883789 0.347179 -1.235067 -8.216913 -16.253494 0.734758 -1.096666 1.891665 -34.145663 37.683848 29.907766 178.879239 52.887077 -178.716476 0.000000 0.000000 0.000000 
-0.251174 96.823044 46.319832 0.000000 0.000000 0.000000 10.289692 -5.122642 0.538192 -28.193423 7.532163 17.211868 25.423588 7.715155 1.275696 -5.591431 -4.263830 -11.922466 1.577634 0.207398 0.388246 0.000000 0.000000 0.000000 10.924329 -4.434604 0.538589 -38.105550 -1.509390 -7.459135 31.520958 -0.317964 -4.540250 -1.901911 -10.691116 10.379040 1.230811 0.320643 0.161417 0.000000 0.000000 0.000000 10.784754 -4.390062 0.529924 5.898761 -0.242800 -0.115273 -0.930659 -0.609312 0.159120 1.236476 1.282408 0.140356 0.000000 0.000000 0.000000 -1.212268 -1.052582 0.267661 10.926696 -0.202827 1.066123 -26.017352 0.967814 -4.419144 0.000000 0.000000 0.000000 -1.746976 -0.895243 0.292809 5.408712 -7.241716 18.397733 -1.453112 -4.026557 0.149496 -29.456799 -20.703895 -14.826083 179.356560 -58.360968 -179.364278 0.000000 0.000000 0.000000 -2.239689 -0.933857 0.320882 -1.400116 -8.389056 -16.027148 0.441868 -0.993175 1.981178 -33.010226 37.836769 29.997562 178.886821 52.840918 -178.590800 0.000000 0.000000 0.000000 
-0.249758 97.195145 46.445587 0.000000 0.000000 0.000000 10.273959 -5.009567 0.546743 -27.819490 7.673351 17.142177 23.968030 7.766938 1.025351 -4.470016 -4.761192 -11.705757 1.866586 0.294437 0.390203 0.000000 0.000000 0.000000 10.945300 -4.125200 0.519552 -37.455156 -1.580094 -7.495643 30.232053 -0.546153 -4.498141 -1.116426 -10.636753 10.243744 1.569118 0.271001 0.182676 0.000000 0.000000 0.000000 10.753207 -4.043843 0.531324 5.970125 -0.206670 -0.047125 -1.210589 -0.671243 0.168185 1.165568 1.261624 0.035951 0.000000 0.000000 0.000000 -1.454060 -1.121518 0.328639 10.701840 -0.144871 1.068642 -24.957819 1.095610 -4.521563 0.000000 0.000000 0.000000 -2.137436 -0.912157 0.312875 5.159581 -6.044709 17.969200 -1.148684 -4.239078 0.249224 -28.139826 -22.887745 -15.322148 179.517288 -57.393096 -179.188961 0.000000 0.000000 0.000000 -2.461330 -0.978039 0.292038 -1.534659 -8.581450 -15.809687 -0.018091 -0.789499 2.042561 -31.805660 37.340808 30.280626 178.992006 52.570511 -178.669894 0.000000 0.000000 0.000000 
-0.271991 97.313683 46.388680 0.000000 0.000000 0.000000 10.241781 -4.988356 0.562552 -27.879055 7.601390 17.123767 23.319750 7.878109 0.745025 -3.681691 -5.111039 -11.448300 2.320909 0.368958 0.345891 0.000000 0.000000 0.000000 10.902308 -3.916422 0.518553 -37.246917 -1.628289 -7.558728 29.631638 -0.778431 -4.438907 -0.617904 -10.609200 10.094441 1.723383 0.199373 0.185751 0.000000 0.000000 0.000000 10.693318 -3.769087 0.531882 6.044865 -0.121595 0.039176 -1.401914 -0.710273 0.172222 1.062741 1.303031 -0.027078 0.000000 0.000000 0.000000 -1.649822 -1.178248 0.374873 10.704197 -0.073451 1.075505 -23.792706 1.144715 -4.703496 0.000000 0.000000 0.000000 -2.426547 -0.931326 0.321994 4.954251 -4.914078 17.229460 -0.696461 -4.432251 0.473885 -26.441640 -24.801132 -16.181966 179.512917 -56.449212 -179.216951 0.000000 0.000000 0.000000 -2.555751 -1.002488 0.253845 -1.619187 -8.695359 -15.656779 -0.376187 -0.539728 2.069184 -30.300877 36.251243 30.817974 179.163840 52.165799 -178.924332 0.000000 0.000000 0.000000 
